<svg version="1.1" id="Layer_1" xmlns="http://www.w3.org/2000/svg" xmlns:xlink="http://www.w3.org/1999/xlink" x="0px" y="0px"
	 width="100%" viewBox="0 0 786 215" enable-background="new 0 0 786 215" xml:space="preserve">
<path fill="#FFFFFF" opacity="1.000000" stroke="none" 
	d="
M554.000000,216.000000 
	C369.333344,216.000000 185.166718,216.000000 1.000049,216.000000 
	C1.000033,144.333359 1.000033,72.666725 1.000016,1.000069 
	C262.999939,1.000046 524.999878,1.000046 786.999878,1.000023 
	C786.999878,72.666595 786.999878,144.333191 786.999939,215.999893 
	C709.500000,216.000000 632.000000,216.000000 554.000000,216.000000 
M62.576836,117.814972 
	C66.915428,143.686981 88.832352,164.079300 114.067627,166.035355 
	C154.085190,169.137207 182.035583,134.566544 177.138535,100.113472 
	C172.821030,69.737846 143.098557,46.341263 112.736427,50.737579 
	C79.459457,55.555965 58.474182,83.135193 62.576836,117.814972 
M400.230103,122.423958 
	C392.833130,119.323135 394.738251,127.771446 390.206665,129.373169 
	C403.113159,136.064835 415.752197,139.287064 429.075958,137.272873 
	C435.428101,136.312592 441.914368,134.015198 447.503815,130.848007 
	C453.308411,127.558891 454.916656,121.239143 453.693420,114.637398 
	C452.483368,108.106506 447.855408,104.618721 441.833435,103.294617 
	C438.013794,102.454781 433.923309,102.538536 429.971313,102.680824 
	C424.003082,102.895699 418.026337,104.014313 412.101593,103.732239 
	C409.748779,103.620224 406.343872,101.244217 405.519806,99.093582 
	C404.283081,95.865929 407.213593,93.364532 410.369751,92.863800 
	C415.549133,92.042099 420.891022,91.198273 426.059326,91.627884 
	C432.048767,92.125732 437.924774,93.988998 444.000702,95.291847 
	C445.377411,92.675766 446.809418,89.954575 448.442810,86.850708 
	C437.789093,82.655136 427.298279,80.362907 416.431305,81.709618 
	C411.135803,82.365883 405.651062,83.893211 400.951843,86.359688 
	C394.984619,89.491692 392.845398,95.387009 393.864838,102.128395 
	C394.833099,108.531746 399.220673,112.050743 404.980133,113.565216 
	C408.575531,114.510635 412.515747,114.492172 416.282288,114.361267 
	C422.577759,114.142494 428.852325,113.270172 435.147034,113.105118 
	C438.445374,113.018631 441.471313,114.413597 442.131256,118.213158 
	C442.817017,122.161659 440.485138,124.440926 437.172363,125.888748 
	C435.972687,126.413063 434.660919,126.726418 433.370514,126.990524 
	C422.066864,129.303955 411.281036,127.522736 400.230103,122.423958 
M312.949127,90.718605 
	C308.836243,88.147781 304.875977,83.711372 300.581543,83.360123 
	C288.286682,82.354507 275.856293,83.006134 263.394623,83.006134 
	C263.394623,100.588737 263.394623,118.623573 263.394623,136.776123 
	C267.075073,136.776123 270.487701,136.776123 274.286041,136.776123 
	C274.286041,131.624939 274.286041,126.698425 274.286041,121.842957 
	C284.589722,120.057335 293.842377,119.857887 298.250183,131.541504 
	C298.763092,132.900986 299.735291,134.184937 300.779266,135.215454 
	C301.614838,136.040268 302.856781,136.860886 303.964081,136.927841 
	C307.522308,137.142944 311.101746,137.007874 315.350159,137.007874 
	C311.174316,130.767014 307.441650,125.188477 303.699493,119.595764 
	C315.666626,112.758080 318.801300,103.313896 312.949127,90.718605 
M656.887207,130.437988 
	C656.887207,132.535385 656.887207,134.632782 656.887207,136.743881 
	C660.856628,136.743881 664.267334,136.743881 668.072021,136.743881 
	C668.072021,131.576172 668.072021,126.655602 668.072021,121.881920 
	C678.490784,119.839859 687.577820,120.067757 691.990173,131.614944 
	C692.510925,132.977661 693.484497,134.235947 694.486877,135.322403 
	C695.183960,136.077911 696.268921,136.881058 697.216919,136.927948 
	C700.927612,137.111511 704.652710,137.002975 709.046448,137.002975 
	C706.686340,133.505646 704.833862,130.783615 703.005798,128.045288 
	C701.123047,125.224945 699.264221,122.388695 697.387451,119.548180 
	C707.352112,113.881775 710.526123,107.839920 709.134583,97.721069 
	C708.110962,90.278160 702.930847,84.072540 694.761902,83.256004 
	C682.288330,82.009178 669.686646,82.043594 656.887207,81.523804 
	C656.887207,98.195992 656.887207,113.822472 656.887207,130.437988 
M640.739014,137.010391 
	C643.115662,137.010391 645.492371,137.010391 648.425476,137.010391 
	C639.307739,118.165604 630.572021,100.110535 621.804504,81.989601 
	C619.781250,81.989601 617.913269,82.242523 616.139587,81.940659 
	C611.421936,81.137749 609.224548,83.314842 607.343262,87.513397 
	C600.555664,102.661911 593.335815,117.616692 586.296753,132.652832 
	C585.690491,133.947845 585.213013,135.303162 584.623291,136.760178 
	C591.196594,137.353897 597.526489,138.574661 599.360413,129.938080 
	C599.550598,129.042282 601.866455,128.064743 603.215698,128.035492 
	C611.362183,127.858978 619.524719,128.188766 627.660095,127.840790 
	C631.443970,127.678932 633.435669,128.870453 634.637878,132.360550 
	C635.453003,134.726761 636.110657,137.750259 640.739014,137.010391 
M326.536438,104.479767 
	C326.580353,107.973305 326.465393,111.477440 326.697388,114.958443 
	C327.458923,126.387154 333.047516,134.119278 344.114838,136.268768 
	C350.708862,137.549454 358.006348,137.194977 364.633484,135.841644 
	C374.003418,133.928207 379.828979,127.014038 380.488800,117.574127 
	C381.306458,105.875298 380.684631,94.075844 380.684631,82.270569 
	C376.924957,82.270569 373.522247,82.270569 369.875519,82.270569 
	C369.875519,92.348045 369.934814,102.144829 369.852936,111.940430 
	C369.804932,117.685020 368.375336,122.913254 362.872131,125.915375 
	C350.489075,132.670578 337.907867,125.410721 337.739410,111.451714 
	C337.679138,106.458572 337.728271,101.464104 337.727936,96.470245 
	C337.727631,91.704575 337.727875,86.938911 337.727875,82.280640 
	C333.655182,82.280640 330.240570,82.280640 326.536469,82.280640 
	C326.536469,89.541687 326.536469,96.513840 326.536438,104.479767 
M544.336914,136.215607 
	C556.568176,139.304932 568.178101,138.029892 579.403503,131.556061 
	C577.618347,128.659378 576.065857,126.140228 574.427612,123.481903 
	C572.673035,124.142197 571.142883,124.710724 569.617981,125.293159 
	C561.937439,128.226685 554.193237,129.027283 546.302917,126.093910 
	C537.575867,122.849503 533.162048,116.120743 534.005005,107.259666 
	C534.752441,99.402657 540.718323,93.717766 549.406433,91.951477 
	C557.518921,90.302216 565.130859,91.755638 572.655029,95.043976 
	C574.337891,92.280602 575.865906,89.771523 577.377991,87.288651 
	C567.214600,80.182892 548.790100,79.314117 537.132385,85.252571 
	C530.811218,88.472580 526.202026,93.259346 523.841553,100.088913 
	C518.382751,115.882500 526.442932,130.647537 544.336914,136.215607 
M482.771240,107.504570 
	C482.771240,117.257477 482.771240,127.010384 482.771240,136.703690 
	C486.775940,136.703690 490.181091,136.703690 494.013916,136.703690 
	C494.013916,121.676102 494.013916,106.947731 494.013916,91.841492 
	C500.876495,91.841492 507.306244,91.841492 513.847778,91.841492 
	C513.847778,88.394493 513.847778,85.340782 513.847778,82.369064 
	C496.535156,82.369064 479.494507,82.369064 462.550415,82.369064 
	C462.550415,85.688095 462.550415,88.620735 462.550415,92.068840 
	C469.372101,92.068840 475.933258,92.068840 482.771240,92.068840 
	C482.771240,97.229431 482.771240,101.868149 482.771240,107.504570 
M242.469543,81.995216 
	C228.244308,81.995216 214.019073,81.995216 199.959290,81.995216 
	C199.959290,85.718628 199.959290,88.757111 199.959290,92.174965 
	C206.783585,92.174965 213.201477,92.174965 220.022446,92.174965 
	C220.022446,107.286766 220.022446,122.006935 220.022446,136.743759 
	C223.854019,136.743759 227.263214,136.743759 231.069305,136.743759 
	C231.069305,121.762711 231.069305,107.037231 231.069305,91.772141 
	C238.003204,91.772141 244.548462,91.772141 251.027740,91.772141 
	C251.027740,88.278831 251.027740,85.334770 251.027740,81.995216 
	C248.378342,81.995216 245.918076,81.995216 242.469543,81.995216 
z"/>
<path fill="#060606" opacity="1.000000" stroke="none" 
	d="
M62.467499,117.380295 
	C58.474182,83.135193 79.459457,55.555965 112.736427,50.737579 
	C143.098557,46.341263 172.821030,69.737846 177.138535,100.113472 
	C182.035583,134.566544 154.085190,169.137207 114.067627,166.035355 
	C88.832352,164.079300 66.915428,143.686981 62.467499,117.380295 
M75.000710,125.340195 
	C76.599487,128.429260 77.962372,131.669998 79.835175,134.582886 
	C92.362396,154.067276 117.021935,161.421494 138.678726,152.247040 
	C159.479156,143.435394 171.417923,120.187973 166.418625,98.231255 
	C160.171631,70.794724 133.379379,54.598267 106.697487,62.128628 
	C79.812843,69.716217 65.534668,97.652374 75.000710,125.340195 
z"/>
<path fill="#060606" opacity="1.000000" stroke="none" 
	d="
M400.553802,122.615425 
	C411.281036,127.522736 422.066864,129.303955 433.370514,126.990524 
	C434.660919,126.726418 435.972687,126.413063 437.172363,125.888748 
	C440.485138,124.440926 442.817017,122.161659 442.131256,118.213158 
	C441.471313,114.413597 438.445374,113.018631 435.147034,113.105118 
	C428.852325,113.270172 422.577759,114.142494 416.282288,114.361267 
	C412.515747,114.492172 408.575531,114.510635 404.980133,113.565216 
	C399.220673,112.050743 394.833099,108.531746 393.864838,102.128395 
	C392.845398,95.387009 394.984619,89.491692 400.951843,86.359688 
	C405.651062,83.893211 411.135803,82.365883 416.431305,81.709618 
	C427.298279,80.362907 437.789093,82.655136 448.442810,86.850708 
	C446.809418,89.954575 445.377411,92.675766 444.000702,95.291847 
	C437.924774,93.988998 432.048767,92.125732 426.059326,91.627884 
	C420.891022,91.198273 415.549133,92.042099 410.369751,92.863800 
	C407.213593,93.364532 404.283081,95.865929 405.519806,99.093582 
	C406.343872,101.244217 409.748779,103.620224 412.101593,103.732239 
	C418.026337,104.014313 424.003082,102.895699 429.971313,102.680824 
	C433.923309,102.538536 438.013794,102.454781 441.833435,103.294617 
	C447.855408,104.618721 452.483368,108.106506 453.693420,114.637398 
	C454.916656,121.239143 453.308411,127.558891 447.503815,130.848007 
	C441.914368,134.015198 435.428101,136.312592 429.075958,137.272873 
	C415.752197,139.287064 403.113159,136.064835 390.206665,129.373169 
	C394.738251,127.771446 392.833130,119.323135 400.553802,122.615425 
z"/>
<path fill="#050505" opacity="1.000000" stroke="none" 
	d="
M313.126160,91.049683 
	C318.801300,103.313896 315.666626,112.758080 303.699493,119.595764 
	C307.441650,125.188477 311.174316,130.767014 315.350159,137.007874 
	C311.101746,137.007874 307.522308,137.142944 303.964081,136.927841 
	C302.856781,136.860886 301.614838,136.040268 300.779266,135.215454 
	C299.735291,134.184937 298.763092,132.900986 298.250183,131.541504 
	C293.842377,119.857887 284.589722,120.057335 274.286041,121.842957 
	C274.286041,126.698425 274.286041,131.624939 274.286041,136.776123 
	C270.487701,136.776123 267.075073,136.776123 263.394623,136.776123 
	C263.394623,118.623573 263.394623,100.588737 263.394623,83.006134 
	C275.856293,83.006134 288.286682,82.354507 300.581543,83.360123 
	C304.875977,83.711372 308.836243,88.147781 313.126160,91.049683 
M304.012390,101.486038 
	C304.247955,96.240021 301.214020,92.816025 296.603516,92.364738 
	C289.267334,91.646675 281.809326,92.172974 274.464539,92.172974 
	C274.464539,98.976006 274.464539,105.243874 274.464539,112.238655 
	C281.657837,111.895264 288.608032,111.824875 295.498535,111.147339 
	C300.519470,110.653633 303.590576,107.578217 304.012390,101.486038 
z"/>
<path fill="#030303" opacity="1.000000" stroke="none" 
	d="
M656.887207,129.943466 
	C656.887207,113.822472 656.887207,98.195992 656.887207,81.523804 
	C669.686646,82.043594 682.288330,82.009178 694.761902,83.256004 
	C702.930847,84.072540 708.110962,90.278160 709.134583,97.721069 
	C710.526123,107.839920 707.352112,113.881775 697.387451,119.548180 
	C699.264221,122.388695 701.123047,125.224945 703.005798,128.045288 
	C704.833862,130.783615 706.686340,133.505646 709.046448,137.002975 
	C704.652710,137.002975 700.927612,137.111511 697.216919,136.927948 
	C696.268921,136.881058 695.183960,136.077911 694.486877,135.322403 
	C693.484497,134.235947 692.510925,132.977661 691.990173,131.614944 
	C687.577820,120.067757 678.490784,119.839859 668.072021,121.881920 
	C668.072021,126.655602 668.072021,131.576172 668.072021,136.743881 
	C664.267334,136.743881 660.856628,136.743881 656.887207,136.743881 
	C656.887207,134.632782 656.887207,132.535385 656.887207,129.943466 
M688.537720,111.411003 
	C694.953308,109.798409 697.735901,106.814278 697.785522,101.493317 
	C697.829102,96.821289 695.132324,92.741730 690.304871,92.356834 
	C682.949463,91.770378 675.512756,92.203224 668.193665,92.203224 
	C668.193665,98.935631 668.193665,105.208076 668.193665,111.664383 
	C674.837097,111.664383 681.275269,111.664383 688.537720,111.411003 
z"/>
<path fill="#060606" opacity="1.000000" stroke="none" 
	d="
M640.304871,137.010376 
	C636.110657,137.750259 635.453003,134.726761 634.637878,132.360550 
	C633.435669,128.870453 631.443970,127.678932 627.660095,127.840790 
	C619.524719,128.188766 611.362183,127.858978 603.215698,128.035492 
	C601.866455,128.064743 599.550598,129.042282 599.360413,129.938080 
	C597.526489,138.574661 591.196594,137.353897 584.623291,136.760178 
	C585.213013,135.303162 585.690491,133.947845 586.296753,132.652832 
	C593.335815,117.616692 600.555664,102.661911 607.343262,87.513397 
	C609.224548,83.314842 611.421936,81.137749 616.139587,81.940659 
	C617.913269,82.242523 619.781250,81.989601 621.804504,81.989601 
	C630.572021,100.110535 639.307739,118.165604 648.425476,137.010391 
	C645.492371,137.010391 643.115662,137.010391 640.304871,137.010376 
M605.851379,115.563087 
	C605.596558,116.550903 605.341736,117.538719 605.078979,118.557404 
	C612.794983,118.557404 620.035095,118.557404 627.959717,118.557404 
	C623.979431,110.211067 620.213318,102.313728 616.059875,93.604271 
	C612.431641,101.356293 609.281677,108.086456 605.851379,115.563087 
z"/>
<path fill="#070707" opacity="1.000000" stroke="none" 
	d="
M326.536438,103.982880 
	C326.536469,96.513840 326.536469,89.541687 326.536469,82.280640 
	C330.240570,82.280640 333.655182,82.280640 337.727875,82.280640 
	C337.727875,86.938911 337.727631,91.704575 337.727936,96.470245 
	C337.728271,101.464104 337.679138,106.458572 337.739410,111.451714 
	C337.907867,125.410721 350.489075,132.670578 362.872131,125.915375 
	C368.375336,122.913254 369.804932,117.685020 369.852936,111.940430 
	C369.934814,102.144829 369.875519,92.348045 369.875519,82.270569 
	C373.522247,82.270569 376.924957,82.270569 380.684631,82.270569 
	C380.684631,94.075844 381.306458,105.875298 380.488800,117.574127 
	C379.828979,127.014038 374.003418,133.928207 364.633484,135.841644 
	C358.006348,137.194977 350.708862,137.549454 344.114838,136.268768 
	C333.047516,134.119278 327.458923,126.387154 326.697388,114.958443 
	C326.465393,111.477440 326.580353,107.973305 326.536438,103.982880 
z"/>
<path fill="#070707" opacity="1.000000" stroke="none" 
	d="
M543.934082,136.138702 
	C526.442932,130.647537 518.382751,115.882500 523.841553,100.088913 
	C526.202026,93.259346 530.811218,88.472580 537.132385,85.252571 
	C548.790100,79.314117 567.214600,80.182892 577.377991,87.288651 
	C575.865906,89.771523 574.337891,92.280602 572.655029,95.043976 
	C565.130859,91.755638 557.518921,90.302216 549.406433,91.951477 
	C540.718323,93.717766 534.752441,99.402657 534.005005,107.259666 
	C533.162048,116.120743 537.575867,122.849503 546.302917,126.093910 
	C554.193237,129.027283 561.937439,128.226685 569.617981,125.293159 
	C571.142883,124.710724 572.673035,124.142197 574.427612,123.481903 
	C576.065857,126.140228 577.618347,128.659378 579.403503,131.556061 
	C568.178101,138.029892 556.568176,139.304932 543.934082,136.138702 
z"/>
<path fill="#050505" opacity="1.000000" stroke="none" 
	d="
M482.771240,107.005714 
	C482.771240,101.868149 482.771240,97.229431 482.771240,92.068840 
	C475.933258,92.068840 469.372101,92.068840 462.550415,92.068840 
	C462.550415,88.620735 462.550415,85.688095 462.550415,82.369064 
	C479.494507,82.369064 496.535156,82.369064 513.847778,82.369064 
	C513.847778,85.340782 513.847778,88.394493 513.847778,91.841492 
	C507.306244,91.841492 500.876495,91.841492 494.013916,91.841492 
	C494.013916,106.947731 494.013916,121.676102 494.013916,136.703690 
	C490.181091,136.703690 486.775940,136.703690 482.771240,136.703690 
	C482.771240,127.010384 482.771240,117.257477 482.771240,107.005714 
z"/>
<path fill="#030303" opacity="1.000000" stroke="none" 
	d="
M242.963669,81.995216 
	C245.918076,81.995216 248.378342,81.995216 251.027740,81.995216 
	C251.027740,85.334770 251.027740,88.278831 251.027740,91.772141 
	C244.548462,91.772141 238.003204,91.772141 231.069305,91.772141 
	C231.069305,107.037231 231.069305,121.762711 231.069305,136.743759 
	C227.263214,136.743759 223.854019,136.743759 220.022446,136.743759 
	C220.022446,122.006935 220.022446,107.286766 220.022446,92.174965 
	C213.201477,92.174965 206.783585,92.174965 199.959290,92.174965 
	C199.959290,88.757111 199.959290,85.718628 199.959290,81.995216 
	C214.019073,81.995216 228.244308,81.995216 242.963669,81.995216 
z"/>
<path fill="#FCFCFC" opacity="1.000000" stroke="none" 
	d="
M74.889069,124.961227 
	C65.534668,97.652374 79.812843,69.716217 106.697487,62.128628 
	C133.379379,54.598267 160.171631,70.794724 166.418625,98.231255 
	C171.417923,120.187973 159.479156,143.435394 138.678726,152.247040 
	C117.021935,161.421494 92.362396,154.067276 79.835175,134.582886 
	C77.962372,131.669998 76.599487,128.429260 74.889069,124.961227 
M84.848557,119.819717 
	C88.484123,124.278725 90.821907,124.290459 94.076111,119.759666 
	C96.660828,116.161011 99.147858,112.492195 101.970085,108.435005 
	C105.999428,114.228989 109.737053,119.603493 113.783257,125.421722 
	C117.800125,119.642258 121.597168,114.179070 125.595589,108.426147 
	C129.722717,114.358917 133.482346,119.763428 137.455505,125.474884 
	C143.007843,117.394592 148.274979,109.740639 153.528763,102.077530 
	C155.388626,99.364731 155.564453,96.569061 152.666550,94.671143 
	C149.891846,92.853920 147.313492,93.735802 145.423111,96.553650 
	C142.865448,100.366150 140.228317,104.125336 137.434692,108.184296 
	C133.376328,102.334671 129.545944,96.813660 125.607933,91.137520 
	C121.583542,96.915657 117.810692,102.332642 113.777763,108.123039 
	C109.742844,102.302429 106.027878,96.943375 102.013817,91.152847 
	C96.777397,98.710747 91.886482,105.767296 86.999741,112.826744 
	C86.432510,113.646172 85.700073,114.415428 85.380089,115.325974 
	C84.956680,116.530823 84.864433,117.852043 84.848557,119.819717 
z"/>
<path fill="#FAFAFA" opacity="1.000000" stroke="none" 
	d="
M304.010559,101.893768 
	C303.590576,107.578217 300.519470,110.653633 295.498535,111.147339 
	C288.608032,111.824875 281.657837,111.895264 274.464539,112.238655 
	C274.464539,105.243874 274.464539,98.976006 274.464539,92.172974 
	C281.809326,92.172974 289.267334,91.646675 296.603516,92.364738 
	C301.214020,92.816025 304.247955,96.240021 304.010559,101.893768 
z"/>
<path fill="#FBFBFB" opacity="1.000000" stroke="none" 
	d="
M688.125549,111.537689 
	C681.275269,111.664383 674.837097,111.664383 668.193665,111.664383 
	C668.193665,105.208076 668.193665,98.935631 668.193665,92.203224 
	C675.512756,92.203224 682.949463,91.770378 690.304871,92.356834 
	C695.132324,92.741730 697.829102,96.821289 697.785522,101.493317 
	C697.735901,106.814278 694.953308,109.798409 688.125549,111.537689 
z"/>
<path fill="#F2F2F2" opacity="1.000000" stroke="none" 
	d="
M605.991577,115.189850 
	C609.281677,108.086456 612.431641,101.356293 616.059875,93.604271 
	C620.213318,102.313728 623.979431,110.211067 627.959717,118.557404 
	C620.035095,118.557404 612.794983,118.557404 605.078979,118.557404 
	C605.341736,117.538719 605.596558,116.550903 605.991577,115.189850 
z"/>
<path fill="#060606" opacity="1.000000" stroke="none" 
	d="
M84.739204,119.471481 
	C84.864433,117.852043 84.956680,116.530823 85.380089,115.325974 
	C85.700073,114.415428 86.432510,113.646172 86.999741,112.826744 
	C91.886482,105.767296 96.777397,98.710747 102.013817,91.152847 
	C106.027878,96.943375 109.742844,102.302429 113.777763,108.123039 
	C117.810692,102.332642 121.583542,96.915657 125.607933,91.137520 
	C129.545944,96.813660 133.376328,102.334671 137.434692,108.184296 
	C140.228317,104.125336 142.865448,100.366150 145.423111,96.553650 
	C147.313492,93.735802 149.891846,92.853920 152.666550,94.671143 
	C155.564453,96.569061 155.388626,99.364731 153.528763,102.077530 
	C148.274979,109.740639 143.007843,117.394592 137.455505,125.474884 
	C133.482346,119.763428 129.722717,114.358917 125.595589,108.426147 
	C121.597168,114.179070 117.800125,119.642258 113.783257,125.421722 
	C109.737053,119.603493 105.999428,114.228989 101.970085,108.435005 
	C99.147858,112.492195 96.660828,116.161011 94.076111,119.759666 
	C90.821907,124.290459 88.484123,124.278725 84.739204,119.471481 
z"/>
</svg>